<svg width="1402" height="304" viewBox="0 0 1402 304" fill="none" xmlns="http://www.w3.org/2000/svg">
<path d="M1400.5 0C1400.5 41.4727 1381.12 81.1036 1345.84 117.283C1310.54 153.47 1259.4 186.126 1196.09 213.584C1069.46 268.498 894.42 302.5 701 302.5C507.579 302.5 332.542 268.498 205.915 213.584C142.599 186.126 91.4554 153.47 56.1619 117.283C20.8751 81.1036 1.5 41.4727 1.5 0C1.5 -41.4727 20.8751 -81.1036 56.1619 -117.283C91.4554 -153.47 142.599 -186.126 205.915 -213.584C332.542 -268.498 507.579 -302.5 701 -302.5C894.42 -302.5 1069.46 -268.498 1196.09 -213.584C1259.4 -186.126 1310.54 -153.47 1345.84 -117.283C1381.12 -81.1036 1400.5 -41.4727 1400.5 0Z" fill="#F4DFC7" stroke="#8B762D" stroke-width="3"/>
</svg>
